<?xml version="1.0" standalone="no"?><!DOCTYPE svg PUBLIC "-//W3C//DTD SVG 1.1//EN" "http://www.w3.org/Graphics/SVG/1.1/DTD/svg11.dtd"><svg t="1728640050001" class="icon" viewBox="0 0 1024 1024" version="1.1" xmlns="http://www.w3.org/2000/svg" p-id="5688" xmlns:xlink="http://www.w3.org/1999/xlink" width="200" height="200"><path d="M512 1014.69C237.382 1014.69 9.31 786.619 9.31 512S237.381 9.31 512 9.31 1014.69 237.381 1014.69 512c0 79.127-18.617 153.6-51.2 218.764 0 4.654 0 4.654-4.654 9.309C875.055 902.982 707.491 1014.69 512 1014.69zM139.636 726.11C214.11 856.435 353.746 944.872 512 944.872c18.618 0 37.236 0 55.855-4.655-23.273-37.236-27.928-74.473-18.619-111.709 13.964-41.89 32.582-60.509 46.546-74.473 9.309-9.309 13.963-9.309 13.963-18.618v-23.273c0-32.581-4.654-88.436 74.473-125.672 60.51-32.582 139.637-9.31 232.727 69.818 18.619-46.546 27.928-97.746 27.928-148.946 0-186.181-121.018-344.436-283.928-404.945 0 9.31 4.655 18.618 4.655 32.582 4.655 18.618 9.31 23.273 27.927 32.582 23.273 13.963 55.855 32.581 46.546 102.4-9.31 74.472-65.164 79.127-97.746 79.127-23.272 0-37.236 4.654-55.854 13.964-9.31 9.309-9.31 32.581-4.655 65.163 4.655 46.546 13.964 116.364-51.2 148.946-60.509 32.581-121.018-4.655-167.563-32.582-13.964-9.31-51.2-32.582-55.855-27.927-13.964 9.309-18.618 41.89-18.618 69.818-9.31 46.545-9.31 88.436-41.891 111.709-23.273 27.927-60.51 37.236-107.055 27.927z m605.091-83.783c-9.309 0-18.618 0-27.927 4.655-37.236 18.618-37.236 37.236-37.236 60.509 0 13.964 0 32.582-4.655 46.545-9.309 23.273-23.273 37.237-32.582 46.546-9.309 9.309-18.618 18.618-27.927 41.89-4.655 23.273 0 46.546 23.273 74.473 102.4-32.581 190.836-102.4 246.69-195.49-41.89-37.237-97.745-79.128-139.636-79.128z m-642.327 0h4.655c32.581 13.964 74.472 23.273 97.745 4.655 9.31-9.31 9.31-37.237 13.964-60.51 4.654-46.545 9.309-97.745 55.854-125.672 41.891-23.273 88.437 4.655 125.673 32.582 41.89 27.927 69.818 41.89 93.09 32.582 18.619-9.31 23.274-27.928 13.964-79.128-4.654-41.89-13.963-93.09 27.928-130.327 32.582-27.927 69.818-32.582 93.09-32.582 32.582 0 32.582 0 32.582-23.272 9.31-18.619 9.31-18.619-9.309-27.928-18.618-9.309-51.2-27.927-60.509-83.782-4.654-18.618-9.309-41.89-9.309-65.163-23.273-4.655-46.545-4.655-74.473-4.655-237.381 0-428.218 190.837-428.218 428.218 4.655 51.2 9.31 93.091 23.273 134.982z" fill="#333333" p-id="5689"></path></svg>