<?xml version="1.0" standalone="no"?><!DOCTYPE svg PUBLIC "-//W3C//DTD SVG 1.1//EN" "http://www.w3.org/Graphics/SVG/1.1/DTD/svg11.dtd"><svg t="1774331467767" class="icon" viewBox="0 0 1024 1024" version="1.1" xmlns="http://www.w3.org/2000/svg" p-id="1670" xmlns:xlink="http://www.w3.org/1999/xlink" width="200" height="200"><path d="M160 672v192h192v64h-192a64 64 0 0 1-64-64v-192h64z m768 0v192a64 64 0 0 1-64 64h-192v-64h192v-192h64zM485.504 307.2l147.584 406.336H564.16l-32.064-94.912H372.992l-32.32 94.912H272L421.312 307.2h64.192z m266.496 0v406.336h-67.84V307.2h67.84zM453.952 388.416h-1.664L392.576 561.92h120.32L453.888 388.48zM352 96v64h-192v192h-64v-192a64 64 0 0 1 64-64h192z m512 0a64 64 0 0 1 64 64v192h-64v-192h-192v-64z" fill="#ffffff" p-id="1671"></path></svg>