<?xml version="1.0" standalone="no"?><!DOCTYPE svg PUBLIC "-//W3C//DTD SVG 1.1//EN" "http://www.w3.org/Graphics/SVG/1.1/DTD/svg11.dtd"><svg t="1782714131497" class="icon" viewBox="0 0 1024 1024" version="1.1" xmlns="http://www.w3.org/2000/svg" p-id="1878" xmlns:xlink="http://www.w3.org/1999/xlink" width="200" height="200"><path d="M529.687273 808.494545h107.054545c41.192727 2.56 42.821818-24.669091 42.821818-42.356363v-127.534546s-137.076364 160.581818-150.109091 169.890909z m-128-8.610909c-4.189091 15.127273 0 15.592727 13.498182 10.938182A497.570909 497.570909 0 0 0 512 749.149091L451.723636 698.181818a821.061818 821.061818 0 0 0-49.803636 102.167273z m418.909091-389.585454l-40.96-33.745455c-8.145455-6.749091-17.221818-9.774545-23.272728-1.861818l-230.167272 239.709091-52.829091 60.509091 68.421818 59.578182 24.669091-28.625455L592.989091 674.909091l1.396364-1.629091 1.861818-2.094545 224.581818-239.709091a13.963636 13.963636 0 0 0 0-23.272728z m-166.632728 23.272727C696.32 384 685.614545 395.636364 685.614545 395.636364l-4.421818-137.076364c0-20.247273 5.818182-49.338182-48.407272-47.709091H246.690909C189.44 209.454545 198.283636 238.312727 198.283636 258.56v502.225455c0 20.247273-2.792727 44.916364 48.407273 47.941818h120.785455l61.672727-136.378182 224.349091-239.476364z m-372.363636-162.909091h320.465455a22.109091 22.109091 0 1 1 0 44.218182H282.065455a22.109091 22.109091 0 1 1 0-44.218182z m0 103.098182h320.465455a22.109091 22.109091 0 1 1 0 44.218182H282.065455a22.109091 22.109091 0 1 1 0-44.218182z m0 147.316364a23.272727 23.272727 0 1 1 0-44.218182h198.050909a23.272727 23.272727 0 1 1 0 44.218182z" fill="#515151" p-id="1879"></path></svg>