<?xml version="1.0" standalone="no"?><!DOCTYPE svg PUBLIC "-//W3C//DTD SVG 1.1//EN" "http://www.w3.org/Graphics/SVG/1.1/DTD/svg11.dtd"><svg t="1765164323529" class="icon" viewBox="0 0 1536 1024" version="1.1" xmlns="http://www.w3.org/2000/svg" p-id="14750" xmlns:xlink="http://www.w3.org/1999/xlink" width="300" height="200"><path d="M1480.996571 258.925714v725.650286H28.745143v-725.577143h1452.251428zM437.394286 396.434286a230.326857 230.326857 0 0 0-194.194286 234.349714 231.350857 231.350857 0 0 0 223.232 223.232A230.326857 230.326857 0 0 0 700.854857 659.748571s0-10.093714-11.117714-10.093714H475.940571l-5.632-0.219428c-15.798857-1.389714-22.454857-8.923429-22.674285-26.770286v-216.502857l-0.731429-3.657143c-2.413714-5.12-9.435429-6.144-9.435428-6.144z m801.865143 335.725714h-317.147429a49.444571 49.444571 0 0 0-49.517714 49.444571l0.365714 6.217143c3.145143 24.722286 24.137143 43.300571 49.152 43.227429h317.147429a49.444571 49.444571 0 0 0 49.444571-49.444572l-0.365714-6.144a49.444571 49.444571 0 0 0-49.005715-43.300571z m0-158.354286h-317.147429a49.444571 49.444571 0 0 0-49.517714 49.517715l0.365714 6.217142c3.145143 24.722286 24.137143 43.300571 49.152 43.300572h317.147429a49.444571 49.444571 0 0 0 49.444571-49.517714l-0.365714-6.144a49.444571 49.444571 0 0 0-49.005715-43.300572zM485.668571 365.348571a13.385143 13.385143 0 0 0-13.824 13.458286v235.446857c0 8.045714 5.12 11.117714 11.117715 11.117715H724.114286c8.045714 0 7.753143-7.094857 7.753143-9.508572A258.925714 258.925714 0 0 0 485.668571 365.494857v-0.073143z m621.714286 50.249143h-185.197714a49.444571 49.444571 0 0 0-49.517714 49.444572l0.365714 6.217143c3.145143 24.722286 24.137143 43.300571 49.152 43.300571h185.270857a49.444571 49.444571 0 0 0 49.444571-49.444571l-0.365714-6.217143a49.444571 49.444571 0 0 0-49.078857-43.300572zM759.954286 69.193143a42.130286 42.130286 0 0 1 42.130285 42.130286v29.842285a42.422857 42.422857 0 0 1-0.804571 8.045715h651.556571c15.579429 0 28.16 12.580571 28.16 28.086857v12.141714a28.086857 28.086857 0 0 1-28.16 28.16H56.758857a28.086857 28.086857 0 0 1-28.086857-28.16v-12.141714c0-15.506286 12.580571-28.086857 28.086857-28.086857h651.629714a42.422857 42.422857 0 0 1-0.804571-8.045715v-29.842285c0-23.259429 18.870857-42.130286 42.130286-42.130286h10.24z" fill="#000000" p-id="14751"></path></svg>