<?xml version="1.0" standalone="no"?><!DOCTYPE svg PUBLIC "-//W3C//DTD SVG 1.1//EN" "http://www.w3.org/Graphics/SVG/1.1/DTD/svg11.dtd"><svg t="1782714345685" class="icon" viewBox="0 0 1024 1024" version="1.1" xmlns="http://www.w3.org/2000/svg" p-id="4082" xmlns:xlink="http://www.w3.org/1999/xlink" width="200" height="200"><path d="M907.636364 744.727273h-25.6c-2.327273-16.290909-9.309091-32.581818-16.290909-46.545455-9.309091-13.963636-20.945455-27.927273-32.581819-37.236363l13.963637-23.272728c6.981818-11.636364 2.327273-25.6-9.309091-32.581818-11.636364-6.981818-25.6-2.327273-32.581818 9.309091l-13.963637 23.272727c-30.254545-11.636364-65.163636-11.636364-95.418182 0l-13.963636-23.272727c-6.981818-11.636364-20.945455-13.963636-32.581818-9.309091-11.636364 6.981818-13.963636 20.945455-9.309091 32.581818l13.963636 23.272728c-23.272727 18.618182-39.563636 41.890909-46.545454 72.145454 0 4.654545-2.327273 9.309091-2.327273 13.963636h-23.272727c-13.963636 0-23.272727 9.309091-23.272727 23.272728s9.309091 23.272727 23.272727 23.272727h25.6c2.327273 16.290909 9.309091 32.581818 16.290909 46.545455 9.309091 13.963636 18.618182 27.927273 32.581818 37.236363l-11.636364 20.945455c-6.981818 11.636364-2.327273 25.6 9.309091 32.581818 4.654545 2.327273 6.981818 2.327273 11.636364 2.327273 6.981818 0 16.290909-4.654545 20.945455-11.636364l11.636363-20.945455c16.290909 6.981818 32.581818 9.309091 48.872727 9.309091 16.290909 0 32.581818-2.327273 48.872728-9.309091l11.636363 20.945455c4.654545 6.981818 11.636364 11.636364 20.945455 11.636364 4.654545 0 6.981818 0 11.636364-2.327273 11.636364-6.981818 13.963636-20.945455 9.30909-32.581818l-11.636363-20.945455c20.945455-18.618182 37.236364-41.890909 46.545454-69.818182 0-4.654545 2.327273-9.309091 2.327273-13.963636h20.945455c13.963636 0 23.272727-9.309091 23.272727-23.272727s-9.309091-25.6-23.272727-25.6z m-72.145455 46.545454c-6.981818 23.272727-20.945455 41.890909-39.563636 53.527273-2.327273 0-2.327273 0-4.654546 2.327273-2.327273 0-2.327273 2.327273-2.327272 2.327272-27.927273 13.963636-60.509091 13.963636-86.109091 0-2.327273 0-2.327273-2.327273-4.654546-2.327272 0 0-2.327273 0-2.327273-2.327273-11.636364-6.981818-23.272727-18.618182-30.254545-32.581818-11.636364-20.945455-16.290909-46.545455-9.309091-69.818182 6.981818-23.272727 20.945455-44.218182 44.218182-55.854545 13.963636-9.309091 30.254545-11.636364 46.545454-11.636364 32.581818 0 62.836364 16.290909 81.454546 46.545454 9.309091 20.945455 11.636364 46.545455 6.981818 69.818182zM395.636364 93.090909H162.909091C123.345455 93.090909 93.090909 123.345455 93.090909 162.909091v232.727273c0 39.563636 30.254545 69.818182 69.818182 69.818181h232.727273c39.563636 0 69.818182-30.254545 69.818181-69.818181V162.909091c0-39.563636-30.254545-69.818182-69.818181-69.818182z m23.272727 302.545455c0 13.963636-9.309091 23.272727-23.272727 23.272727H162.909091c-13.963636 0-23.272727-9.309091-23.272727-23.272727V162.909091c0-13.963636 9.309091-23.272727 23.272727-23.272727h232.727273c13.963636 0 23.272727 9.309091 23.272727 23.272727v232.727273zM395.636364 558.545455H162.909091c-39.563636 0-69.818182 30.254545-69.818182 69.818181v232.727273c0 39.563636 30.254545 69.818182 69.818182 69.818182h232.727273c39.563636 0 69.818182-30.254545 69.818181-69.818182V628.363636c0-39.563636-30.254545-69.818182-69.818181-69.818181z m23.272727 302.545454c0 13.963636-9.309091 23.272727-23.272727 23.272727H162.909091c-13.963636 0-23.272727-9.309091-23.272727-23.272727V628.363636c0-13.963636 9.309091-23.272727 23.272727-23.272727h232.727273c13.963636 0 23.272727 9.309091 23.272727 23.272727v232.727273zM861.090909 93.090909H628.363636c-39.563636 0-69.818182 30.254545-69.818181 69.818182v232.727273c0 39.563636 30.254545 69.818182 69.818181 69.818181h232.727273c39.563636 0 69.818182-30.254545 69.818182-69.818181V162.909091c0-39.563636-30.254545-69.818182-69.818182-69.818182z m23.272727 302.545455c0 13.963636-9.309091 23.272727-23.272727 23.272727H628.363636c-13.963636 0-23.272727-9.309091-23.272727-23.272727V162.909091c0-13.963636 9.309091-23.272727 23.272727-23.272727h232.727273c13.963636 0 23.272727 9.309091 23.272727 23.272727v232.727273z" p-id="4083" fill="#2c2c2c"></path></svg>