<?xml version="1.0" standalone="no"?><!DOCTYPE svg PUBLIC "-//W3C//DTD SVG 1.1//EN" "http://www.w3.org/Graphics/SVG/1.1/DTD/svg11.dtd"><svg t="1713355703873" class="icon" viewBox="0 0 1024 1024" version="1.1" xmlns="http://www.w3.org/2000/svg" p-id="12079" xmlns:xlink="http://www.w3.org/1999/xlink" width="200" height="200"><path d="M983.04 0a40.96 40.96 0 0 1 40.96 40.96v942.08a40.96 40.96 0 0 1-40.96 40.96H40.96a40.96 40.96 0 0 1-40.96-40.96V40.96A40.96 40.96 0 0 1 40.96 0h942.08z m-51.2 92.16H92.16v839.68h839.68V92.16zM302.272 207.232l41.28 10.496c-5.248 10.496-10.496 21.632-17.024 32.128h201.216v33.408H304.256a637.952 637.952 0 0 1-25.6 30.848h226.816s-0.64 11.136-1.28 17.024c-1.344 18.368-2.688 34.752-3.968 49.792h37.312a348.032 348.032 0 0 0-28.8-26.24C550.016 319.36 585.408 265.6 604.416 209.28l43.264 10.496a412.608 412.608 0 0 1-24.32 55.04h181.568v38.656h-43.904a321.088 321.088 0 0 1-68.8 125.184c35.392 30.144 78.016 52.48 127.808 64.896-9.216 9.152-22.272 26.88-28.8 39.296a340.8 340.8 0 0 1-130.496-74.048c-34.048 28.16-75.328 50.496-121.856 68.16a206.08 206.08 0 0 0-29.504-35.392c47.872-15.04 89.152-36.032 121.92-63.552a407.168 407.168 0 0 1-55.04-89.152c-10.496 13.76-22.336 26.24-34.112 36.736l-3.904-3.968v29.504h-40.64c-1.28 15.744-3.264 28.8-4.608 40.64h44.544v30.144h-49.792c-3.264 14.4-6.528 24.256-10.496 30.784l28.16 13.76c-28.8 24.96-63.552 49.152-92.992 68.16 15.68 9.216 30.72 17.728 43.904 26.24 49.152-28.8 98.944-61.632 132.992-89.152l40 22.976a1631.488 1631.488 0 0 1-156.608 96.32c64.192-0.64 132.352-1.92 199.872-3.264a866.816 866.816 0 0 0-63.552-34.112l32.768-23.552c55.04 25.536 123.84 66.176 159.232 96.32l-34.112 26.88a425.344 425.344 0 0 0-40.64-31.488l-192 5.248v121.92h-47.808v-120.576c-97.664 2.56-187.456 4.544-255.616 5.888l-1.92-40.64c46.464 0 104.832-0.64 169.664-1.28 4.608-2.688 9.216-5.312 14.464-7.872A961.088 961.088 0 0 0 294.4 580.16l33.472-26.24c15.68 6.592 33.408 14.464 50.432 22.976 17.728-11.84 36.672-26.88 54.4-41.28-12.48 0.64-32.768 0.64-51.776-1.28a80 80 0 0 0-9.856-31.488c22.976 1.92 43.264 1.92 51.84 1.92 8.448 0 13.056-0.64 17.664-5.888a41.28 41.28 0 0 0 7.872-17.024h-163.2c-2.624 9.856-4.608 19.008-6.528 26.88l-39.36-4.608c6.592-25.6 13.76-58.304 20.992-93.056h-43.904v-30.144h49.152c3.904-22.272 7.872-44.544 10.496-64.192a281.984 281.984 0 0 1-24.32 24.192 203.776 203.776 0 0 0-35.968-24.192 307.328 307.328 0 0 0 86.464-109.44z m76.672 492.16l43.264 16.448c-45.184 32.768-112.704 64.832-167.744 84.48L241.28 787.2a172.736 172.736 0 0 0-22.912-19.584c57.024-16.384 121.28-41.344 160.64-68.16z m254.272-1.92c55.04 17.024 125.824 47.808 163.84 72.064l-36.672 29.504c-34.752-24.256-104.832-56.32-161.28-75.328zM460.224 411.072H395.328c-1.92 14.4-3.904 28.16-6.528 40.64h66.176c1.92-11.136 3.968-24.96 5.248-40.64z m-99.584 0h-61.632c-2.624 13.76-5.248 27.52-7.872 40.64h62.912c1.92-12.48 4.608-26.24 6.592-40.64z m353.216-97.664h-109.44c13.12 35.392 32.768 67.52 56.96 95.68a251.52 251.52 0 0 0 52.48-95.68z m-344.704 29.504h-57.664l-7.232 38.016h60.288c1.92-13.12 3.264-25.6 4.608-38.016z m96.96 0H403.84l-4.544 38.016h64.192c0.64-11.776 1.28-24.256 2.624-38.016z" p-id="12080"></path></svg>