<?xml version="1.0" standalone="no"?><!DOCTYPE svg PUBLIC "-//W3C//DTD SVG 1.1//EN" "http://www.w3.org/Graphics/SVG/1.1/DTD/svg11.dtd"><svg t="1764921408279" class="icon" viewBox="0 0 1024 1024" version="1.1" xmlns="http://www.w3.org/2000/svg" p-id="10585" xmlns:xlink="http://www.w3.org/1999/xlink" width="200" height="200"><path d="M306.522602 222.412348l54.191841 0c7.338479 0 12.983462-6.209482 12.983462-13.54796L373.697905 54.191841c0-7.338479-5.644983-13.54796-12.983462-13.54796l-54.191841 0C299.184123 40.643881 293.53914 46.853363 293.53914 54.191841L293.53914 208.864388C293.53914 216.202867 299.184123 222.412348 306.522602 222.412348z" fill="#bfbfbf" p-id="10586"></path><path d="M661.027563 222.412348l54.191841 0c7.338479 0 12.983462-6.209482 12.983462-13.54796L728.202867 54.191841c0-7.338479-5.644983-13.54796-12.983462-13.54796l-54.191841 0c-7.338479 0-12.983462 6.209482-12.983462 13.54796L648.044101 208.864388C648.044101 216.202867 653.689085 222.412348 661.027563 222.412348z" fill="#bfbfbf" p-id="10587"></path><path d="M871.020948 111.206174l-111.206174 0 0 127.576626c0 6.209482-5.080485 11.289967-11.289967 11.289967l-121.367144 0c-6.209482 0-11.289967-5.080485-11.289967-11.289967L615.867696 111.206174 406.438809 111.206174l0 127.576626c0 6.209482-5.080485 11.289967-11.289967 11.289967L273.781698 250.072767c-6.209482 0-11.289967-5.080485-11.289967-11.289967L262.491731 111.206174 151.285557 111.206174c-28.224917 0-50.804851 22.579934-50.804851 50.804851l0 128.705623 821.345094 0L921.825799 162.011025C921.825799 133.786108 898.681367 111.206174 871.020948 111.206174z" fill="#bfbfbf" p-id="10588"></path><path d="M100.480706 941.018743c0 28.224917 22.579934 50.804851 50.804851 50.804851l719.735391 0c28.224917 0 50.804851-22.579934 50.804851-50.804851L921.825799 314.990077 100.480706 314.990077 100.480706 941.018743zM326.280044 508.048512c0-6.209482 6.209482-14.112459 16.370452-14.112459L677.398015 493.936053c7.902977 0 16.370452 6.209482 16.370452 14.112459l1.693495 36.692393c0 6.209482-6.209482 14.112459-16.370452 14.112459L342.650496 558.853363c-7.902977 0-16.370452-6.209482-16.370452-14.112459L326.280044 508.048512zM326.280044 637.318633c0-6.209482 6.209482-14.112459 16.370452-14.112459L677.398015 623.206174c7.902977 0 16.370452 6.209482 16.370452 14.112459l1.693495 34.434399c0 6.209482-6.209482 14.112459-16.370452 14.112459L342.650496 685.865491c-7.902977 0-16.370452-6.209482-16.370452-14.112459L326.280044 637.318633zM326.280044 764.330761c0-6.209482 6.209482-14.112459 16.370452-14.112459L677.398015 750.218302c7.902977 0 16.370452 6.209482 16.370452 14.112459l1.693495 36.692393c0 6.209482-6.209482 14.112459-16.370452 14.112459L342.650496 815.135612c-7.902977 0-16.370452-6.209482-16.370452-14.112459L326.280044 764.330761z" fill="#bfbfbf" p-id="10589"></path></svg>