<?xml version="1.0" standalone="no"?><!DOCTYPE svg PUBLIC "-//W3C//DTD SVG 1.1//EN" "http://www.w3.org/Graphics/SVG/1.1/DTD/svg11.dtd"><svg t="1772517792416" class="icon" viewBox="0 0 1024 1024" version="1.1" xmlns="http://www.w3.org/2000/svg" p-id="4703" xmlns:xlink="http://www.w3.org/1999/xlink" width="200" height="200"><path d="M869.24 681.55H837.1V546.07c0-42.74-34.81-77.52-77.59-77.52H544.62v-126.9h32.93c30.97 0 56.17-25.18 56.17-56.12V153.67c0-30.95-25.2-56.13-56.17-56.13H445.59c-30.97 0-56.17 25.18-56.17 56.13v131.85c0 30.95 25.2 56.13 56.17 56.13h29.53v126.91H263.64c-42.79 0-77.59 34.78-77.59 77.52V681.5h-32.16c-30.96 0.07-56.14 25.26-56.14 56.18v131.85c0 30.95 25.2 56.12 56.17 56.12h132c30.97 0 56.17-25.17 56.17-56.12V737.68c0-30.95-25.2-56.13-56.17-56.13h-30.33V546.07c0-4.42 3.62-8.03 8.05-8.03h211.44V681.5H445.6c-30.97 0-56.16 25.18-56.16 56.13v131.85c0 30.95 25.2 56.12 56.16 56.12h132c30.97 0 56.17-25.17 56.17-56.12V737.63c0-30.95-25.2-56.13-56.17-56.13h-32.93V538.09h214.89c4.44 0 8.05 3.61 8.05 8.03v135.42h-30.33c-30.97 0-56.17 25.18-56.17 56.13v131.86c0 30.94 25.2 56.12 56.17 56.12h132.01c30.97 0 56.17-25.17 56.17-56.12V737.65c-0.07-30.93-25.29-56.1-56.22-56.1z m0 0" p-id="4704" fill="#ffffff"></path></svg>