<?xml version="1.0" standalone="no"?><!DOCTYPE svg PUBLIC "-//W3C//DTD SVG 1.1//EN" "http://www.w3.org/Graphics/SVG/1.1/DTD/svg11.dtd"><svg t="1766716683253" class="icon" viewBox="0 0 1024 1024" version="1.1" xmlns="http://www.w3.org/2000/svg" p-id="7128" xmlns:xlink="http://www.w3.org/1999/xlink" width="200" height="200"><path d="M512 128l384 384-384-384z" fill="#ffffff" fill-opacity=".85" p-id="7129"></path><path d="M585.728 160.96a64 64 0 0 1 62.656 51.2l39.68 191.552a64.192 64.192 0 0 1-62.72 77.248H395.712a64.128 64.128 0 0 1-62.4-78.208L376 211.2a64 64 0 0 1 62.464-50.176h147.2z m0 64.192H438.4l-42.752 191.616h229.632l-39.68-191.616zM381.824 544a64 64 0 0 1 62.72 51.2l39.616 191.552a64.192 64.192 0 0 1-62.72 77.248H191.936a64.128 64.128 0 0 1-62.464-78.208l42.752-191.616a64 64 0 0 1 62.464-50.176h147.2z m0 64.192h-147.2l-42.752 191.616h229.632l-39.68-191.616zM794.624 544a64 64 0 0 1 62.72 51.2l39.616 191.552a64.192 64.192 0 0 1-62.72 77.248H604.736a64.128 64.128 0 0 1-62.464-78.208l42.752-191.616a64 64 0 0 1 62.464-50.176h147.2z m0 64.192h-147.2l-42.752 191.616h229.632l-39.68-191.616z" fill="#ffffff" fill-opacity=".85" p-id="7130"></path></svg>