<?xml version="1.0" standalone="no"?><!DOCTYPE svg PUBLIC "-//W3C//DTD SVG 1.1//EN" "http://www.w3.org/Graphics/SVG/1.1/DTD/svg11.dtd"><svg t="1766716587844" class="icon" viewBox="0 0 1026 1024" version="1.1" xmlns="http://www.w3.org/2000/svg" p-id="4887" xmlns:xlink="http://www.w3.org/1999/xlink" width="200.390625" height="200"><path d="M987.420444 114.261333H36.579556c-20.252444 0-36.579556 16.327111-36.579556 36.551111v731.448889c0 20.195556 16.327111 36.551111 36.579556 36.551111h950.840888c20.224 0 36.579556-16.327111 36.579556-36.551111V150.812444c0-20.195556-16.355556-36.551111-36.579556-36.551111z m-45.710222 722.261334H82.289778V196.551111h859.420444v640zM188.672 742.513778c3.555556 3.527111 9.386667 3.527111 12.913778 0l197.148444-197.148445 130.759111 130.844445c3.527111 3.555556 9.386667 3.555556 12.913778 0l339.427556-339.626667a9.187556 9.187556 0 0 0 0-12.942222L839.765333 281.6a9.187556 9.187556 0 0 0-12.913777 0l-290.844445 290.986667-130.759111-130.872889a9.187556 9.187556 0 0 0-12.913778 0L146.744889 687.388444a9.187556 9.187556 0 0 0 0 12.913778l41.927111 42.183111z" fill="#ffffff" fill-opacity=".65" p-id="4888"></path></svg>