<?xml version="1.0" standalone="no"?><!DOCTYPE svg PUBLIC "-//W3C//DTD SVG 1.1//EN" "http://www.w3.org/Graphics/SVG/1.1/DTD/svg11.dtd"><svg t="1742539563789" class="icon" viewBox="0 0 1024 1024" version="1.1" xmlns="http://www.w3.org/2000/svg" p-id="3954" xmlns:xlink="http://www.w3.org/1999/xlink" width="200" height="200"><path d="M464 500h-108c-19.2 0-36-16.8-36-36v-108c0-19.2 16.8-36 36-36H464c19.2 0 36 16.8 36 36V464c0 19.2-16.8 36-36 36z m0 204h-108c-19.2 0-36-16.832-36-36V560c0-19.2 16.8-36 36-36H464c19.2 0 36 16.832 36 36v105.6c0 21.568-16.8 38.4-36 38.4z m151.2 0c-50.432 0-91.2-40.8-91.2-88.8a88.608 88.608 0 0 1 88.8-88.832 88.608 88.608 0 0 1 88.8 88.832c2.4 48-38.4 88.8-86.4 88.8z m52.8-204H560c-19.2 0-36-16.832-36-36v-108c0-19.2 16.832-36 36-36h105.6c21.568 0 38.4 16.8 38.4 36V464c0 19.2-16.832 36-36 36z" fill="#ffffff" p-id="3955"></path></svg>