<?xml version="1.0" standalone="no"?><!DOCTYPE svg PUBLIC "-//W3C//DTD SVG 1.1//EN" "http://www.w3.org/Graphics/SVG/1.1/DTD/svg11.dtd"><svg t="1734591936965" class="icon" viewBox="0 0 1024 1024" version="1.1" xmlns="http://www.w3.org/2000/svg" p-id="4339" xmlns:xlink="http://www.w3.org/1999/xlink" width="200" height="200"><path d="M213.333333 128h85.333334v85.333333H213.333333v213.333334a85.333333 85.333333 0 0 1-85.333333 85.333333 85.333333 85.333333 0 0 1 85.333333 85.333333v213.333334h85.333334v85.333333H213.333333c-45.653333-11.52-85.333333-38.4-85.333333-85.333333v-170.666667a85.333333 85.333333 0 0 0-85.333333-85.333333H0v-85.333334h42.666667a85.333333 85.333333 0 0 0 85.333333-85.333333V213.333333a85.333333 85.333333 0 0 1 85.333333-85.333333m597.333334 0a85.333333 85.333333 0 0 1 85.333333 85.333333v170.666667a85.333333 85.333333 0 0 0 85.333333 85.333333h42.666667v85.333334h-42.666667a85.333333 85.333333 0 0 0-85.333333 85.333333v170.666667a85.333333 85.333333 0 0 1-85.333333 85.333333h-85.333334v-85.333333h85.333334v-213.333334a85.333333 85.333333 0 0 1 85.333333-85.333333 85.333333 85.333333 0 0 1-85.333333-85.333333V213.333333h-85.333334V128h85.333334m-298.666667 512a42.666667 42.666667 0 0 1 42.666667 42.666667 42.666667 42.666667 0 0 1-42.666667 42.666666 42.666667 42.666667 0 0 1-42.666667-42.666666 42.666667 42.666667 0 0 1 42.666667-42.666667m-170.666667 0a42.666667 42.666667 0 0 1 42.666667 42.666667 42.666667 42.666667 0 0 1-42.666667 42.666666 42.666667 42.666667 0 0 1-42.666666-42.666666 42.666667 42.666667 0 0 1 42.666666-42.666667m341.333334 0a42.666667 42.666667 0 0 1 42.666666 42.666667 42.666667 42.666667 0 0 1-42.666666 42.666666 42.666667 42.666667 0 0 1-42.666667-42.666666 42.666667 42.666667 0 0 1 42.666667-42.666667z" fill="#ffffff" p-id="4340"></path><path d="M683.946667 668.714667a59.904 59.904 0 0 0-56.746667-41.514667H597.333333v-89.6a29.866667 29.866667 0 0 0-29.866666-29.866667H388.266667v-59.733333h59.733333a29.866667 29.866667 0 0 0 29.866667-29.866667V358.4h59.733333A59.733333 59.733333 0 0 0 597.333333 298.666667v-12.245334a238.464 238.464 0 0 1 86.613334 382.293334m-206.08 75.861333A238.592 238.592 0 0 1 268.8 507.733333c0-18.517333 2.389333-36.437333 6.272-53.461333L418.133333 597.333333v29.866667a59.733333 59.733333 0 0 0 59.733334 59.733333m29.866666-477.866666a298.666667 298.666667 0 0 0-298.666666 298.666666 298.666667 298.666667 0 0 0 298.666666 298.666667 298.666667 298.666667 0 0 0 298.666667-298.666667 298.666667 298.666667 0 0 0-298.666667-298.666666z" fill="#ffffff" p-id="4341"></path></svg>