<?xml version="1.0" standalone="no"?><!DOCTYPE svg PUBLIC "-//W3C//DTD SVG 1.1//EN" "http://www.w3.org/Graphics/SVG/1.1/DTD/svg11.dtd"><svg t="1726307920458" class="icon" viewBox="0 0 1024 1024" version="1.1" xmlns="http://www.w3.org/2000/svg" p-id="27375" xmlns:xlink="http://www.w3.org/1999/xlink" width="200" height="200"><path d="M502.8864 914.688a26.6752 26.6752 0 1 0 38.0416 37.4272 26.6752 26.6752 0 1 0-38.0416-37.4272zM84.3776 503.2448a26.6752 26.6752 0 1 0 37.7344-0.3072 26.6752 26.6752 0 0 0-37.7344 0.3072z m449.4848-381.0304a26.6752 26.6752 0 1 0-37.7344 0.3072 26.6752 26.6752 0 0 0 37.7344-0.3584z m418.1504 373.76a26.6752 26.6752 0 1 0 0.3072 37.7344 26.6752 26.6752 0 0 0-0.3072-37.8368zM290.0992 293.9904a320.1024 320.1024 0 1 0 452.6592-3.84 320.1024 320.1024 0 0 0-452.6592 3.84z m418.4576 430.9504c-103.2704 105.0624-291.84 87.04-396.7488-16.2816s-108.5952-274.3296-3.2256-377.2416c137.5744-134.2976 311.1424-106.4448 416.2048-3.1744s87.0912 291.6352-16.2304 396.6976zM404.48 406.2208a160.0512 160.0512 0 1 0 226.304-1.8944 160.0512 160.0512 0 0 0-226.304 1.8944z m209.92 196.7616c-51.2 62.6176-148.48 42.5984-190.3104 1.1776s-32.8192-138.24 8.4992-180.1216 122.5728-35.84 170.3936-1.28c57.4976 41.4208 29.2864 157.5424 10.9568 180.224z" p-id="27376"></path></svg>