<?xml version="1.0" standalone="no"?><!DOCTYPE svg PUBLIC "-//W3C//DTD SVG 1.1//EN" "http://www.w3.org/Graphics/SVG/1.1/DTD/svg11.dtd"><svg t="1772530139749" class="icon" viewBox="0 0 1025 1024" version="1.1" xmlns="http://www.w3.org/2000/svg" p-id="6799" xmlns:xlink="http://www.w3.org/1999/xlink" width="200.1953125" height="200"><path d="M256.055998 0q14.847536 0 25.727196 10.847661t10.847661 25.727196l0 509.136089 306.262429-245.144339q9.727696-7.99975 22.847286-7.99975 14.847536 0 25.727196 10.847661t10.847661 25.727196l0 216.569232 306.262429-245.144339q9.727696-7.99975 22.847286-7.99975 14.847536 0 25.727196 10.847661t10.847661 25.727196l0 658.25143q0 14.847536-10.847661 25.727196t-25.727196 10.847661l-950.818287 0q-14.847536 0-25.727196-10.847661t-10.847661-25.727196l0-950.818287q0-14.847536 10.847661-25.727196t25.727196-10.847661l219.417143 0z" p-id="6800" fill="#ffffff"></path></svg>