<?xml version="1.0" standalone="no"?><!DOCTYPE svg PUBLIC "-//W3C//DTD SVG 1.1//EN" "http://www.w3.org/Graphics/SVG/1.1/DTD/svg11.dtd"><svg t="1750832472925" class="icon" viewBox="0 0 1024 1024" version="1.1" xmlns="http://www.w3.org/2000/svg" p-id="27800" xmlns:xlink="http://www.w3.org/1999/xlink" width="200" height="200"><path d="M893.9008 276.2752C893.9008 181.248 813.056 102.4 710.8096 102.4c-99.6352 0-175.0528 78.7968-183.0912 173.8752-5.4272 108.6976 183.0912 241.8688 183.0912 241.8688s183.0912-133.12 183.0912-241.8688z m-185.856-84.1728c43.1616 0 80.7936 35.328 80.7936 78.848 0 43.4176-35.0208 78.7456-80.7936 78.7456-43.1104 0-80.7424-35.328-80.7424-78.7968s37.7344-78.7968 80.7424-78.7968z m-212.6336 442.88c16.1792-29.9008 24.2688-59.8016 24.2688-89.7024 0-130.4064-115.8144-239.104-261.1712-239.104C115.712 306.176 0 412.16 0 539.904v18.9952c0 13.568 2.7136 24.4736 8.0896 38.0416 8.0384 24.4736 18.8416 48.896 35.0208 70.656C115.712 778.9568 261.12 876.7488 261.12 876.7488s145.408-95.0784 218.112-211.8656c5.376-8.192 10.752-19.0464 16.1792-29.9008z m-239.6672-13.6704c-59.2384 0-104.96-46.1824-104.96-103.2192 0-57.088 48.4352-103.2704 104.96-103.2704 59.2384 0 104.96 46.1824 104.96 103.2704 0 57.0368-45.7728 103.2192-104.96 103.2192z m692.0192 59.8528c-263.8848-48.896-212.736-111.4112-212.736-111.4112h-53.8624c-29.5936 165.7344 425.472 105.984 247.7056 244.5312-153.4464 124.928-525.056 16.384-525.056 16.384L349.952 882.176c592.384 195.6352 802.5088-162.9696 597.8112-201.0112z" fill="#ffffff" p-id="27801"></path></svg>