<?xml version="1.0" standalone="no"?><!DOCTYPE svg PUBLIC "-//W3C//DTD SVG 1.1//EN" "http://www.w3.org/Graphics/SVG/1.1/DTD/svg11.dtd"><svg t="1731571362993" class="icon" viewBox="0 0 1024 1024" version="1.1" xmlns="http://www.w3.org/2000/svg" p-id="6045" xmlns:xlink="http://www.w3.org/1999/xlink" width="200" height="200"><path d="M950.592 471.616L836.864 357.76a57.152 57.152 0 0 0-80.832 80.768l17.088 16.512H568.896V250.88l16.512 17.088a56.896 56.896 0 0 0 80.768 0 56.896 56.896 0 0 0 0-80.832L552.32 73.408a56.896 56.896 0 0 0-80.768 0L357.76 187.136a57.152 57.152 0 0 0 80.768 80.832l16.512-17.088v204.224H250.88l17.088-16.512a57.152 57.152 0 1 0-80.832-80.768L73.408 471.68a56.896 56.896 0 0 0 0 80.768l113.728 113.792a56.896 56.896 0 0 0 80.832 0 56.896 56.896 0 0 0 0-80.768l-17.088-16.512h204.224v204.224l-16.512-17.088a57.152 57.152 0 1 0-80.768 80.832l113.792 113.728a56.896 56.896 0 0 0 80.768 0l113.792-113.728a57.152 57.152 0 0 0-80.768-80.832l-16.512 17.088V568.896h204.224l-17.088 16.512a56.896 56.896 0 0 0 0 80.768 56.896 56.896 0 0 0 80.832 0l113.728-113.792a56.896 56.896 0 0 0 0-80.768z" fill="#ffffff" p-id="6046"></path></svg>