<?xml version="1.0" standalone="no"?><!DOCTYPE svg PUBLIC "-//W3C//DTD SVG 1.1//EN" "http://www.w3.org/Graphics/SVG/1.1/DTD/svg11.dtd"><svg t="1750836636296" class="icon" viewBox="0 0 1024 1024" version="1.1" xmlns="http://www.w3.org/2000/svg" p-id="30008" xmlns:xlink="http://www.w3.org/1999/xlink" width="200" height="200"><path d="M554.666667 438.101333a85.333333 85.333333 0 1 1-85.333334 0V346.709333A170.752 170.752 0 0 0 512 682.666667a170.666667 170.666667 0 0 0 131.797333-279.125334 42.666667 42.666667 0 0 1 65.834667-54.272A256 256 0 1 1 469.333333 259.541333V173.312A341.376 341.376 0 0 0 512 853.333333a341.333333 341.333333 0 0 0 230.698667-592.896 42.666667 42.666667 0 0 1 57.728-62.848A425.557333 425.557333 0 0 1 938.666667 512c0 235.648-191.018667 426.666667-426.666667 426.666667S85.333333 747.648 85.333333 512 276.352 85.333333 512 85.333333a42.666667 42.666667 0 0 1 42.666667 42.666667v310.101333z" p-id="30009" fill="#ffffff"></path></svg>