<?xml version="1.0" standalone="no"?><!DOCTYPE svg PUBLIC "-//W3C//DTD SVG 1.1//EN" "http://www.w3.org/Graphics/SVG/1.1/DTD/svg11.dtd"><svg t="1733386954423" class="icon" viewBox="0 0 1024 1024" version="1.1" xmlns="http://www.w3.org/2000/svg" p-id="2516" xmlns:xlink="http://www.w3.org/1999/xlink" width="200" height="200"><path d="M921.952 300.16c4.928-19.264 7.872-39.328 7.872-60.16 0-132.576-107.392-240-240-240-108 0-199.264 71.328-229.408 169.44C432.064 143.936 394.944 128 353.824 128 272.96 128 206.752 188.256 196 266.24 87.136 278.144 2.368 372.352 2.368 484.416c0 120.16 97.376 219.552 217.504 219.552 120.192 0 464 0 584.128 0 120.256 0 217.632-99.392 217.632-219.552C1021.664 407.808 981.824 339.2 921.952 300.16z" p-id="2517" fill="#ffffff"></path><path d="M448.032 960c0 35.328 28.672 64 64 64 35.328 0 64-28.672 64-64 0-64-64-128-64-128S448.032 896 448.032 960z" p-id="2518" fill="#ffffff"></path><path d="M673.216 864c0 35.328 28.672 64 64 64 35.328 0 64-28.672 64-64 0-64-64-128-64-128S673.216 800 673.216 864z" p-id="2519" fill="#ffffff"></path><path d="M225.216 864c0 35.328 28.672 64 64 64 35.328 0 64-28.672 64-64 0-64-64-128-64-128S225.216 800 225.216 864z" p-id="2520" fill="#ffffff"></path></svg>