<?xml version="1.0" standalone="no"?><!DOCTYPE svg PUBLIC "-//W3C//DTD SVG 1.1//EN" "http://www.w3.org/Graphics/SVG/1.1/DTD/svg11.dtd"><svg t="1733128511065" class="icon" viewBox="0 0 1024 1024" version="1.1" xmlns="http://www.w3.org/2000/svg" p-id="2418" xmlns:xlink="http://www.w3.org/1999/xlink" width="200" height="200"><path d="M512 981.333333A469.333333 469.333333 0 0 1 42.666667 512a470.613333 470.613333 0 0 1 106.666666-297.173333 80.853333 80.853333 0 0 1 57.813334-29.653334 83.626667 83.626667 0 0 1 62.506666 24.106667l272.426667 272.64a42.666667 42.666667 0 0 1-60.16 60.16L212.053333 272.426667A384 384 0 0 0 128 512a384 384 0 0 0 405.333333 384 386.986667 386.986667 0 0 0 362.666667-362.666667A384 384 0 0 0 512 128a394.24 394.24 0 0 0-99.626667 13.013333 42.666667 42.666667 0 0 1-21.333333-82.346666A469.333333 469.333333 0 0 1 981.333333 537.173333 473.386667 473.386667 0 0 1 537.173333 981.333333zM215.253333 268.373333z" fill="#ffffff" p-id="2419"></path></svg>