<?xml version="1.0" standalone="no"?><!DOCTYPE svg PUBLIC "-//W3C//DTD SVG 1.1//EN" "http://www.w3.org/Graphics/SVG/1.1/DTD/svg11.dtd"><svg t="1726308106871" class="icon" viewBox="0 0 1024 1024" version="1.1" xmlns="http://www.w3.org/2000/svg" p-id="28504" xmlns:xlink="http://www.w3.org/1999/xlink" width="200" height="200"><path d="M512 128c100.8 0 195.456 39.04 266.368 107.392l12.224 12.352-42.88 40.64a324.928 324.928 0 1 0 76.48 133.44l-5.44-17.216 55.744-19.52A384 384 0 1 1 512 128z" fill="#8a8a8a" p-id="28505"></path><path d="M791.232 127.296a32 32 0 0 1 31.488 26.24l0.512 5.76v127.296a32 32 0 0 1-26.24 31.488l-5.76 0.512h-125.76a32 32 0 0 1-5.76-63.488l5.76-0.512 93.76-0.064V159.296a32 32 0 0 1 26.24-31.488l5.76-0.512z" p-id="28506"></path></svg>