<?xml version="1.0" standalone="no"?><!DOCTYPE svg PUBLIC "-//W3C//DTD SVG 1.1//EN" "http://www.w3.org/Graphics/SVG/1.1/DTD/svg11.dtd"><svg t="1713355749986" class="icon" viewBox="0 0 1024 1024" version="1.1" xmlns="http://www.w3.org/2000/svg" p-id="13894" xmlns:xlink="http://www.w3.org/1999/xlink" width="200" height="200"><path d="M983.04 0a40.96 40.96 0 0 1 40.96 40.96v942.08a40.96 40.96 0 0 1-40.96 40.96H40.96a40.96 40.96 0 0 1-40.96-40.96V40.96A40.96 40.96 0 0 1 40.96 0h942.08z m-51.2 92.16H92.16v839.68h839.68V92.16zM303.616 461.568v345.344h-47.232V461.568h47.232z m464.64-55.68v343.36c0 27.52-6.592 40-25.6 47.168-18.944 7.232-51.072 7.872-100.864 7.872a137.984 137.984 0 0 0-15.744-43.264c36.672 1.28 72.064 1.28 81.28 0.64 10.432-0.64 13.056-3.2 13.056-12.416v-298.88H415.04v-44.544h353.216z m-134.4 98.24v224.768H394.752V504.128h239.232zM590.08 632.576H437.312v58.368h152.704v-58.368z m0-90.432H437.312v54.4h152.704v-54.4zM321.28 380.928c27.52 23.616 60.288 56.96 74.752 80l-37.376 26.88c-13.76-23.68-45.248-58.368-72.768-82.624z m0-172.992l46.528 11.136a596.16 596.16 0 0 1-19.648 47.168h159.232v41.28H415.04c12.416 21.632 24.192 45.888 30.08 62.272l-42.56 17.664c-6.528-21.568-22.272-53.056-37.376-79.936h-39.296a470.08 470.08 0 0 1-66.88 86.528 484.864 484.864 0 0 0-40.576-26.88c44.544-38.656 81.92-97.664 102.848-159.232z m252.992 0.64l45.888 10.496a320.256 320.256 0 0 1-17.088 47.808h188.16v41.28h-106.24c15.744 22.336 29.504 46.528 36.736 64.256l-41.984 19.008c-7.808-22.272-27.52-55.68-46.528-83.2h-50.432a373.76 373.76 0 0 1-51.776 73.344 226.304 226.304 0 0 0-40-27.52c36.736-35.392 66.88-89.088 83.2-145.472z" p-id="13895"></path></svg>