<?xml version="1.0" standalone="no"?><!DOCTYPE svg PUBLIC "-//W3C//DTD SVG 1.1//EN" "http://www.w3.org/Graphics/SVG/1.1/DTD/svg11.dtd"><svg t="1729244015006" class="icon" viewBox="0 0 1024 1024" version="1.1" xmlns="http://www.w3.org/2000/svg" p-id="10843" xmlns:xlink="http://www.w3.org/1999/xlink" width="200" height="200"><path d="M292.571429 0q7.428571 0 12.857142 5.428571T310.857143 18.285714v841.142857q0 11.428571-9.714286 16L26.857143 1021.714286q-4 2.285714-8.571429 2.285714-7.428571 0-12.857143-5.428571T0 1005.714286V164.571429q0-11.428571 9.714286-16L284 2.285714q4-2.285714 8.571429-2.285714z m713.142857 0q7.428571 0 12.857143 5.428571T1024 18.285714v841.142857q0 11.428571-9.714286 16l-274.285714 146.285715q-4 2.285714-8.571429 2.285714-7.428571 0-12.857142-5.428571t-5.428572-12.857143V164.571429q0-11.428571 9.714286-16L997.142857 2.285714q4-2.285714 8.571429-2.285714zM365.714286 0q4.571429 0 8 1.714286l292.571428 146.285714q10.285714 5.714286 10.285715 16.571429v841.142857q0 7.428571-5.428572 12.857143t-12.857143 5.428571q-4.571429 0-8-1.714286l-292.571428-146.285714q-10.285714-5.714286-10.285715-16.571429V18.285714q0-7.428571 5.428572-12.857143T365.714286 0z" p-id="10844" fill="#ffffff"></path></svg>