<?xml version="1.0" standalone="no"?><!DOCTYPE svg PUBLIC "-//W3C//DTD SVG 1.1//EN" "http://www.w3.org/Graphics/SVG/1.1/DTD/svg11.dtd"><svg t="1721101492414" class="icon" viewBox="0 0 1024 1024" version="1.1" xmlns="http://www.w3.org/2000/svg" p-id="3019" xmlns:xlink="http://www.w3.org/1999/xlink" width="200" height="200"><path d="M500.88 86.37l-360.5 332.77a16.49 16.49 0 0 0-5.31 12.12v485.26A16.49 16.49 0 0 0 151.56 933h265.55a16.49 16.49 0 0 0 16.49-16.49V603.38a16.49 16.49 0 0 1 16.49-16.49h123.82a16.49 16.49 0 0 1 16.49 16.49v313.14A16.49 16.49 0 0 0 606.89 933h265.67a16.49 16.49 0 0 0 16.49-16.49V431.26a16.49 16.49 0 0 0-5.31-12.12L523.25 86.37a16.49 16.49 0 0 0-22.37 0z" p-id="3020"></path></svg>