<?xml version="1.0" standalone="no"?><!DOCTYPE svg PUBLIC "-//W3C//DTD SVG 1.1//EN" "http://www.w3.org/Graphics/SVG/1.1/DTD/svg11.dtd"><svg t="1713355270367" class="icon" viewBox="0 0 1024 1024" version="1.1" xmlns="http://www.w3.org/2000/svg" p-id="1537" xmlns:xlink="http://www.w3.org/1999/xlink" width="200" height="200"><path d="M736.096 548.4q-5.44 21.008-31.024 103.856h62.528q-24.144-77.616-27.2-87.792t-4.304-16.064z" fill="#212121" p-id="1538"></path><path d="M928 384H544a80.096 80.096 0 0 0-80 80v352a80.096 80.096 0 0 0 80 80h219.2l123.968 82.64A16 16 0 0 0 912 965.328V896h16a80.096 80.096 0 0 0 80-80V464a80.096 80.096 0 0 0-80-80z m-130.88 368l-17.408-57.088h-87.424L674.896 752h-54.8l84.656-240.848h62.192L851.904 752z" fill="#212121" p-id="1539"></path><path d="M239.056 236.656a176.352 176.352 0 0 0 19.296 43.504 172.592 172.592 0 0 0 24.208 32.256 156.8 156.8 0 0 0 22.768-32 164.256 164.256 0 0 0 17.28-43.776z" fill="#212121" p-id="1540"></path><path d="M480 32H96a80.096 80.096 0 0 0-80 80v352a80.096 80.096 0 0 0 80 80h16v69.328a16 16 0 0 0 24.88 13.312L260.8 544H432v-80a112.144 112.144 0 0 1 112-112h16V112a80.096 80.096 0 0 0-80-80z m-83.936 395.072a328.624 328.624 0 0 1-112.352-56.16 340.544 340.544 0 0 1-115.52 56.464A150 150 0 0 0 144 384.16a294.4 294.4 0 0 0 106.88-43.504 258.768 258.768 0 0 1-36.304-50.4 248.736 248.736 0 0 1-22.192-53.6h-5.76c-13.824 0-26.784 0.576-38.304 1.712v-44.64a312.144 312.144 0 0 0 39.456 2.016h68.56v-18.432a104.8 104.8 0 0 0-1.712-19.6h49.824a101.536 101.536 0 0 0-1.712 19.312v18.72h72.88a317.136 317.136 0 0 0 39.76-2.016V238.4a372.992 372.992 0 0 0-38.032-1.712h-6.624a230.4 230.4 0 0 1-20.8 56.464 234.48 234.48 0 0 1-33.12 47.536 262.032 262.032 0 0 0 104.576 40.912 152.496 152.496 0 0 0-25.312 45.472z" fill="#212121" p-id="1541"></path></svg>