<?xml version="1.0" standalone="no"?><!DOCTYPE svg PUBLIC "-//W3C//DTD SVG 1.1//EN" "http://www.w3.org/Graphics/SVG/1.1/DTD/svg11.dtd"><svg t="1729233153205" class="icon" viewBox="0 0 1024 1024" version="1.1" xmlns="http://www.w3.org/2000/svg" p-id="6027" xmlns:xlink="http://www.w3.org/1999/xlink" width="200" height="200"><path d="M527.85714307 953.77142832a22.71428614 22.71428614 0 0 1-16.54285693-6.94285664c-8.14285722-8.27142891-11.48571387-23.35714277-10.67142921-47.4000003-0.42857138-8.74285752-2.22857138-16.15714277-9.42857138-23.78571415l-0.98571446-1.07142891-0.17142802-0.25714248c-2.09999971 1.19999971-7.15714278 6.34285722-11.44285752 20.91428525l-0.59999942 1.97142891-1.15714336 1.71428555c-8.14285722 11.87142891-17.82857109 13.62857168-22.88571415 13.62857168-10.02857168 0-18.77142832-6.47142891-23.1000003-17.01428556-11.7-22.84285693 6.34285722-51.51428613 21.00000059-71.18571444l0.72857109-0.85714278c12.21428584-13.84285693 17.14285722-26.14285723 23.35714278-41.70000058 2.87142891-7.11428555 6.08571387-15.08571387 10.28571415-23.91428496a80.14285723 80.14285723 0 0 1-9.77142831 0.64285664c-3.77142891 0-14.87142862 0-22.37142833-8.57142862-9.29999971-10.54285752-7.58571416-26.44285693-3.21428584-55.58571386-0.98571445-8.01428555-4.71428613-8.01428555-6.51428613-8.01428555a18.42857138 18.42857138 0 0 0-4.84285694 0.7285711l-0.9 0.25714247-0.94285722 0.12857169a26.14285723 26.14285723 0 0 0-9.94285723 4.41428554c-6.3 3.85714248-15.00000029 9.04285723-28.54285664 9.04285723-4.71428613 0-9.68571386-0.60000029-15.12857197-1.88571446l-1.41428584-0.04285722c-2.57142833 0-7.41428613 0.51428584-8.05714277 2.40000029-2.78571445 17.05714277-9.72857109 40.02857138-27 53.82857198l-2.57142833 2.01428524-3.1714286 0.64285753a17.35714248 17.35714248 0 0 1-3.4285711 0.34285693c-11.18571416 0-18.9-9.98571445-27.08571445-20.57142832a113.91428584 113.91428584 0 0 0-8.05714278-9.85714365l-1.58571474-1.54285664-0.94285723-1.97142891c-0.98571445-2.05714248-2.18571416-2.95714248-2.91428525-2.95714248-1.07142891 0-3.34285752 1.67142832-4.97142861 6.12857109-5.82857138 17.01428555-18.12857168 27.21428613-32.91428584 27.21428614a35.78571386 35.78571386 0 0 1-14.31428555-3.17142862l-1.8-0.77142831-1.5000003-1.28571505c-3.42857109-2.91428613-10.28571416-5.05714307-18.68571386-5.87142861l-18.51428584-1.8 7.71428584-16.62857139c6.90000029-15.00000029 1.71428555-27.34285693-2.48571475-30.34285664-16.71428584-12.12857138-25.97142832-26.91428555-26.14285723-41.65714336-0.08571445-8.70000029 2.95714248-21.42857109 17.95714278-32.91428495 16.07142832-12.68571445 14.65714248-21.55714277 5.87142861-34.15714366-7.80000029-8.78571386-13.20000029-13.28571387-20.74285634-13.28571386-8.44285693 0-20.31428584 5.74285693-34.28571446 16.49999971a29.27142862 29.27142862 0 0 1-18.9 6.85714305 29.22857138 29.22857138 0 0 1-25.41428613-14.48571445 24.94285752 24.94285752 0 0 1 1.37142861-26.22857079 139.79999971 139.79999971 0 0 1 70.92857198-56.70000001 25.32857168 25.32857168 0 0 0 13.02857138-15.55714336 5.65714248 5.65714248 0 0 0 0.1285708-2.14285693c-14.48571445-8.74285752-28.19999971-26.87142832-18.25714248-64.41428584 4.07142862-23.14285752-2.18571416-29.14285693-10.1999997-34.02857109l-14.4-8.8714292 10.07142802-9.55714219c4.71428613-12.64285723 8.82857109-26.22857168 9.04285722-40.58571445a482.44285723 482.44285723 0 0 0-11.14285693-69.51428614l-0.98571445-3.81428525 1.32857138-3.68571445c9.85714277-27.38571416 19.58571386-52.28571445 39.55714278-79.41428614 18.81428555-26.48571416 46.71428555-42.3 74.74285722-42.3 10.50000029 0 21.04285693 2.14285693 31.28571475 6.42857169 7.02857109 2.7 25.07142833 9.68571386 34.15714278 9.68571474a9.81428555 9.81428555 0 0 0 1.49999941-0.12857168 18.68571387 18.68571387 0 0 0 2.8714289-2.22857139 38.40000029 38.40000029 0 0 0-7.54285693-7.84285752c-10.58571386-7.97142832-24.21428555-20.27142862-22.3714292-35.3999997 1.15714248-9.77142832 8.14285722-17.52857138 20.65714277-23.01428585 14.95714307-6.81428584 30.42857109-10.28571416 45.85714366-10.28571415 25.67142862 0 50.22857109 9.34285693 71.27142803 26.95714277 21.98571416 10.8 42.00000029 16.80000029 61.15714277 18.34285693h0.04285723c28.92857168 0 47.05714248 14.01428584 72.1714289 33.42857169l6.34285722 4.84285693c9.85714277 5.95714307 18.77142832 8.87142832 27.25714249 8.87142831 18.04285722 0 36.17142891-14.44285723 53.78571475-42.85714218l24.59999971 5.31428554c2.82857168 24.25714277 8.70000029 29.48571386 10.02857167 29.48571387 1.02857168 0 10.97142891-0.85714277 32.99999942-29.22857138l2.5714292-3.34285664 4.07142861-1.28571416a39.42857109 39.42857109 0 0 1 11.44285664-1.6714292c14.95714307 0 30.08571416 8.57142862 40.45714277 22.88571415 13.28571387 18.25714248 16.62857138 42.00000029 9 63.55714307l-0.47142861 1.37142862-0.77142832 1.20000059c-0.77142833 1.24285693-0.81428555 1.8-0.81428555 1.8s1.37142862 5.05714307 18.94285723 12.6l2.74285723-5.61428614 13.15714218 10.58571387c33.21428555 26.65714307 51.04285752 65.14285693 48.94285782 105.47142891-1.92857168 36-19.37142862 67.15714307-47.87142891 85.62857167l-1.45714307 0.9-1.62857109 0.55714307a24.08571387 24.08571387 0 0 0-15.55714336 13.88571416c-3.85714248 9.34285693-2.95714248 22.02857138 2.44285752 33.55714248 17.39999971 16.2 32.91428584 47.99999971 28.58571386 73.71428555l-0.04285634 0.42857138c-3.55714278 17.52857138 5.74285693 31.28571387 22.45714277 54.08571446 8.78571386 11.99999971 18.72857109 25.58571416 26.87142833 41.87142861l4.07142861 8.14285722-6.34285723 6.59999971a107.31428614 107.31428614 0 0 0-12.47142832 15.00000029 22.15714307 22.15714307 0 0 1 12.64285723-4.37142831c6.42857168 0 12.04285693 3.38571386 15.08571387 9 4.58571445 8.48571416 2.31428584 21.08571416-5.91428585 32.91428584l-0.17142802 0.21428525c-21.72857168 29.91428613-19.15714248 67.71428614-14.48571446 97.28571446l0.98571446 6.17142831-4.28571475 4.62857169c-15.85714307 17.14285722-33.81428584 25.84285752-53.27142803 25.84285752-15.68571416 0-31.97142862-5.57142891-49.71428613-16.97142921l-0.42857138-0.25714248a22.24285752 22.24285752 0 0 0-12.94285695-3.64285722c-9.42857138 0-20.40000029 4.11428584-30.94285781 11.14285693a39.64285722 39.64285722 0 0 1 25.32857169 34.67142862c1.19999971 19.92857167-12.98571416 42.3-38.78571446 45.25714336l-8.57142861 0.98571357-4.45714277-7.3285708c-21.51428555-35.70000029-41.91428584-39.85714248-55.37142862-39.85714336-4.37142833 0-9 0.55714307-13.84285693 1.54285752-12.68571445 2.57142833-17.39999971 6.21428555-18.17142802 7.79999941-0.25714248 0.55714307 0.04285723 2.31428584 1.41428495 4.71428614l0.34285782 0.68571386c5.91428584 12.30000029 2.01428614 29.44285752-0.85714277 38.5714292-2.18571416 7.02857109-8.52857138 24.25714277-19.54285752 31.37142832l-9 5.78571416-7.67142862-7.41428525c-2.09999971-2.01428614-9.64285752-8.57142862-19.15714248-8.57142862-6.47142891 0-13.02857138 3.17142862-19.41428584 9.51428585l-0.25714336 0.25714248c-10.62857109 9.85714277-20.09999971 14.69999971-28.97142803 14.6999997z m-16.28571445-94.97142861c13.02857138 14.27142832 15.25714278 28.84285722 15.72857138 40.02857138v1.02857169c-0.60000029 16.41428613 1.15714248 23.91428584 2.31428584 27a41.91428584 41.91428584 0 0 0 8.74285664-6.64285694c14.4-14.14285752 28.71428555-17.1 38.18571504-17.1 10.45714307 0 19.28571416 3.38571386 25.97142832 7.24285723 1.41428584-2.87142891 2.91428613-6.42857168 4.15714307-10.62857198 3.12857138-10.28571416 2.74285723-17.14285722 2.05714247-18.9-6.55714248-12.25714307-4.62857168-21.85714248-1.84285722-27.72857109 5.18571387-10.92857168 17.57142862-18.42857138 36.85714277-22.32857109 6.55714248-1.37142862 13.07142862-2.05714248 19.28571416-2.05714336 28.62857109 0 52.45714248 14.35714278 72.68571475 43.84285752a16.97142833 16.97142833 0 0 0 7.92857109-15.3c-0.55714307-9-8.35714248-14.14285752-21.42857109-14.14285752-1.88571445 0-3.89999971 0.12857168-6.00000029 0.34285693l-11.57142832-21.4285711c20.61428555-23.95714307 47.22857138-38.22857138 71.18571445-38.22857138 10.50000029 0 20.18571416 2.87142891 28.11428525 8.27142891 13.24285752 8.48571416 24.68571416 12.6 34.97142921 12.6s19.88571445-4.28571387 29.27142773-12.98571505c-4.37142833-31.11428584-5.4-69.00000029 15.12857197-102.55714277a30.6 30.6 0 0 1-3.12857139 0.17142891c-9.60000029 0-17.35714248-4.71428613-20.82857167-12.51428555-4.97142862-11.40000029 0.12857168-25.71428584 15.64285693-43.62857138a314.52857138 314.52857138 0 0 0-20.44285664-30.38571475c-16.88571386-23.01428584-32.82857138-44.78571386-27-74.18571416 2.57142833-16.28571445-9.64285752-41.01428584-21.94285693-51.42857168l-1.97142891-1.71428555-1.19999971-2.27142861c-9.81428555-18.94285722-11.44285752-40.37142832-4.32857197-57.34285664 5.57142891-13.37142832 15.85714307-23.05714307 29.91428613-28.15714336 20.57142832-13.92857138 33.21428555-37.28571416 34.62857139-64.28571416 1.54285752-29.78571445-10.75714278-58.41428555-33.98571475-79.45714248l-1.97142803-0.68571475c-27-9.42857138-41.65714248-19.88571445-46.28571415-32.82857138a26.70000029 26.70000029 0 0 1 2.35714218-22.75714248c4.28571387-13.28571387 2.09999971-27.64285752-5.91428584-38.7-5.31428555-7.32857168-12.51428555-11.91428613-18.77142832-11.91428614h-0.08571445c-19.45714307 24.21428555-35.74285752 35.52857138-50.99999942 35.52857139-6.25714278 0-18-2.14285693-26.40000058-16.58571416a54.42857138 54.42857138 0 0 1-3.17142862-6.42857168c-18.12857168 20.87142891-37.54285752 31.07142862-58.84285693 31.07142861-13.58571445 0-27.68571387-4.45714278-42.00000029-13.24285664l-0.55714219-0.34285693-0.55714306-0.42857138-6.94285753-5.31428643c-23.22857109-17.95714277-36-27.85714277-55.71428554-27.85714278l-1.02857168 0.04285723h-0.55714219c-23.22857109-1.8-47.14285693-8.95714278-73.11428613-21.89999971L436.57142891 110.85714248l-1.28571504-1.11428526C419.00000029 95.64285693 399.97142862 88.18571445 380.42857109 88.18571445a83.57142832 83.57142832 0 0 0-34.75714218 7.88571387l-0.21428614 0.08571445a22.67142891 22.67142891 0 0 0-4.6714289 2.57142832c0.98571445 1.71428555 3.85714248 5.4 12.00000058 11.52857198l0.68571387 0.51428584c9 7.71428584 18.17142891 17.27142891 17.31428613 29.74285722-0.55714307 8.48571416-5.65714248 15.90000029-15.12857197 22.11428496a28.11428613 28.11428613 0 0 1-16.24285635 4.41428643c-12.51428555 0-28.58571386-5.57142891-44.05714365-11.57142919l-0.34285693-0.08571446a54.42857138 54.42857138 0 0 0-21.04285693-4.41428554c-28.62857109 0-47.74285722 23.82857138-52.9285711 31.15714305l-0.12857168 0.21428614c-17.1 23.14285752-26.1 45.17142891-34.75714306 69.21428555 4.5 18.77142832 8.14285722 42.34285722 10.92857167 70.15714277l0.08571446 0.68571387v0.68571474c-0.17142891 16.02857109-3.85714248 30.51428555-8.48571504 43.84285664 17.57142862 16.02857109 16.58571416 37.28571416 13.41428642 54.72857198l-0.25714336 1.0285708c-7.71428584 28.75714277 3.42857109 34.58571416 7.71428585 36.81428642l1.71428554 0.85714278 1.37142861 1.37142861a27.98571445 27.98571445 0 0 1 7.58571416 26.52857139 51.12857109 51.12857109 0 0 1-29.14285693 34.71428584l-0.42857138 0.1285708c-24.85714307 9.21428613-43.84285752 24.42857168-58.07142862 46.41428584a2.99999971 2.99999971 0 0 0 1.58571475 0.47142861c0.42857138 0 0.98571445-0.08571445 1.71428554-0.72857109l0.51428584-0.38571416c19.32857138-14.95714307 36-22.20000029 50.99999942-22.20000029 21.21428584 0 33.81428584 14.27142832 41.31428643 22.79999971l0.42857138 0.51428583 0.42857139 0.55714307c18.60000029 26.27142891 15.00000029 49.84285693-10.71428643 70.11428555l-0.21428525 0.12857167c-5.14285752 3.94285693-7.75714307 7.97142832-7.71428585 11.99999971 0.08571445 6.21428555 5.78571416 14.05714307 15.3 20.95714336 11.57142832 8.31428613 19.50000029 26.27142891 15.85714307 46.71428555 6.12857109 1.88571445 11.40000029 4.41428555 15.77142862 7.67142861a7.37142891 7.37142891 0 0 0 2.14285693 0.34285694c3.08571416 0 6.08571387-4.71428613 7.67142862-9.42857139l0.08571445-0.25714336c5.27142832-14.57142891 16.84285752-23.61428613 30.17142861-23.61428525 10.58571386 0 20.31428584 6.00000029 25.88571387 15.85714306 2.99999971 3.25714307 6.00000029 7.07142833 8.82857197 10.8 1.28571416 1.71428555 2.99999971 3.94285693 4.71428526 5.99999941 5.14285752-7.49999971 9-18.17142891 11.05714336-31.02857138l0.12857079-0.68571387c3.08571416-14.35714278 16.2-23.27142832 34.15714278-23.27142832 1.50000029 0 2.99999971 0.04285723 4.58571445 0.17142803l1.11428613 0.08571445 1.07142803 0.29999971a41.18571387 41.18571387 0 0 0 9.81428555 1.37142862c6.00000029 0 9.42857138-2.05714248 14.57142891-5.14285665 4.92857138-2.99999971 10.97142891-6.59999971 19.32857138-7.92857197 3.85714248-0.98571445 7.62857138-1.50000029 11.22857139-1.49999942 18.60000029 0 31.62857168 13.15714307 33.21428554 33.47142804l0.12857169 1.50000029-0.21428526 1.41428583c-1.71428555 11.35714307-4.5 29.78571445-3.21428584 35.69999942a52.80000029 52.80000029 0 0 0 8.2285708-0.29999971c5.22857109-1.32857138 9.60000029-2.01428614 13.3714292-2.01428525 9.85714277 0 15.00000029 4.45714278 17.57142861 8.18571357 6.17142832 9.04285723 1.71428555 19.71428555-1.24285781 26.78571475l-0.81428555 1.84285722c-4.37142833 8.91428555-7.54285693 16.88571386-10.62857109 24.55714248-6.55714248 16.37142891-12.72857168 31.79999971-27.68571475 48.85714336-21.08571416 28.37142862-19.97142891 39.64285722-18.59999941 43.11428555 10.45714307-30.72857168 27-35.44285693 36.1285708-35.44285693 8.39999971 0 16.28571445 4.11428584 21.00000059 10.9285708z m17.44285693-493.15714278a47.99999971 47.99999971 0 0 0-48.4285711 47.48571475 47.99999971 47.99999971 0 0 0 48.4285711 47.52857109 47.99999971 47.99999971 0 0 0 48.42857197-47.52857109 47.99999971 47.99999971 0 0 0-48.42857197-47.48571475z m81 13.84285693a87.55714248 87.55714248 0 0 0-46.71428555-45.85714277 88.71428584 88.71428584 0 0 0-34.11428555-6.72857138 88.67142862 88.67142862 0 0 0-62.05714277 25.24285722 85.71428614 85.71428614 0 0 0-18.85714277 27.34285693 84.21428584 84.21428584 0 0 0-6.85714307 33.55714336c0 11.57142832 2.31428584 22.88571416 6.85714307 33.51428526a87.55714248 87.55714248 0 0 0 46.71428554 45.85714365c10.84285723 4.45714278 22.32857109 6.72857138 34.2 6.72857139a88.71428584 88.71428584 0 0 0 62.05714277-25.2 85.71428614 85.71428614 0 0 0 25.71428585-60.9000003c0-11.65714277-2.31428584-22.92857138-6.9000003-33.55714336z m-7.32857169 33.55714336c0 39.72857168-33.00000029 72.08571445-73.49999941 72.08571446-40.54285722 0-73.50000029-32.35714277-73.50000029-72.08571446 0-39.77142891 33.00000029-72.12857168 73.50000029-72.12857167 40.5 0 73.50000029 32.35714277 73.49999941 72.12857167z" p-id="6028" fill="#ffffff"></path></svg>