<?xml version="1.0" standalone="no"?><!DOCTYPE svg PUBLIC "-//W3C//DTD SVG 1.1//EN" "http://www.w3.org/Graphics/SVG/1.1/DTD/svg11.dtd"><svg t="1726711823236" class="icon" viewBox="0 0 1024 1024" version="1.1" xmlns="http://www.w3.org/2000/svg" p-id="12066" xmlns:xlink="http://www.w3.org/1999/xlink" width="200" height="200"><path d="M908.3904 420.1472C893.6448 356.0448 862.208 294.8096 818.176 245.248c-44.032-49.8688-99.4304-88.064-161.8944-112.0256-46.592-18.0224-95.232-27.2384-143.4624-27.2384-80.0768 0-159.3344 23.8592-226.0992 68.8128-16.7936 11.3664-32.6656 23.8592-47.4112 37.376-0.1024 0.1024-0.2048 0.1024-0.2048 0.2048-12.288 10.4448-12.9024 29.2864-1.3312 40.5504l3.1744 3.072c10.5472 10.3424 27.4432 10.5472 38.4 0.6144 1.024-0.9216 1.9456-1.7408 2.8672-2.56 60.0064-53.248 136.704-84.6848 217.2928-87.2448 68.8128-2.048 138.0352 15.9744 195.4816 52.0192 56.6272 35.2256 101.888 86.016 130.048 145.92 29.3888 62.0544 39.424 132.096 29.3888 201.3184-10.0352 66.6624-39.424 128.7168-84.6848 178.688-44.032 49.8688-102.8096 86.016-167.3216 102.8096-67.9936 18.0224-140.0832 15.9744-205.9264-6.656-63.3856-22.6304-121.2416-64.6144-161.8944-117.4528-35.2256-46.592-57.856-100.6592-66.6624-158.5152 8.704 4.7104 36.5568 18.3296 57.7536 28.672 14.336 6.9632 31.5392 1.2288 38.912-12.9024 7.68-14.7456 1.536-32.9728-13.5168-40.1408l-141.0048-66.6624s-3.7888 15.9744-5.0176 32.256c-2.048 40.2432 3.3792 101.888 29.7984 160.6656C161.3824 727.6544 201.216 783.4624 251.904 825.344c50.7904 42.8032 113.2544 72.6016 178.688 86.016 67.9936 13.4144 139.264 10.0352 204.6976-11.3664 63.3856-20.5824 121.2416-56.6272 167.3216-104.0384 46.592-47.4112 80.0768-106.0864 99.4304-170.7008 20.1728-67.072 22.2208-137.9328 6.3488-205.1072z m0 0" p-id="12067"></path><path d="M512.1024 929.5872c-27.7504 0-55.7056-2.7648-83.456-8.192-67.9936-13.9264-131.3792-44.4416-183.296-88.1664-50.0736-41.3696-91.648-97.4848-120.2176-162.2016-31.744-70.5536-32.0512-139.1616-30.6176-165.2736v-0.2048c1.3312-16.9984 5.12-33.1776 5.3248-33.8944l2.8672-12.288L255.1808 531.456c9.8304 4.608 17.2032 12.9024 20.5824 23.1424 3.4816 10.3424 2.6624 21.2992-2.3552 30.9248-9.9328 19.1488-33.0752 26.8288-52.4288 17.408-12.8-6.2464-27.648-13.4144-39.5264-19.3536 10.3424 48.9472 30.8224 93.9008 61.1328 133.8368 39.5264 51.4048 95.3344 91.8528 157.0816 113.9712 63.8976 22.016 133.12 24.2688 199.8848 6.4512 62.2592-16.1792 119.9104-51.5072 162.304-99.6352l0.1024-0.1024c43.9296-48.4352 72.3968-108.3392 82.2272-173.3632 9.8304-67.584 0-135.168-28.4672-195.3792-27.3408-58.2656-70.9632-107.3152-126.1568-141.6192-55.0912-34.6112-122.4704-52.5312-189.7472-50.4832-77.2096 2.4576-152.064 32.4608-210.7392 84.6848l-0.2048 0.2048c-0.7168 0.6144-1.6384 1.3312-2.56 2.2528-14.9504 13.7216-37.9904 13.4144-52.4288-0.8192l-3.1744-3.072c-7.5776-7.3728-11.6736-17.7152-11.3664-28.3648 0.4096-10.5472 5.2224-20.48 13.2096-27.3408l0.1024-0.1024c15.1552-13.824 31.4368-26.624 48.4352-38.0928 33.9968-22.8352 71.2704-40.5504 110.7968-52.5312 39.3216-11.9808 80.0768-18.0224 121.0368-18.0224 49.7664 0 99.2256 9.4208 147.1488 27.9552 63.7952 24.3712 121.1392 64.1024 165.888 114.7904 45.2608 50.8928 77.312 112.9472 92.4672 179.3024 16.384 69.0176 14.1312 141.7216-6.4512 210.432-20.0704 66.6624-55.296 127.0784-101.9904 174.592-47.4112 48.64-106.7008 85.6064-171.52 106.5984-40.3456 13.2096-83.0464 19.8656-126.3616 19.8656zM114.9952 506.7776c-1.3312 24.7808-1.024 89.3952 28.8768 155.7504 27.3408 61.952 66.9696 115.5072 114.5856 154.8288 49.3568 41.5744 109.568 70.5536 174.1824 83.8656 67.584 13.312 136.4992 9.5232 199.4752-11.0592 61.6448-19.968 118.0672-55.0912 163.2256-101.376 44.3392-45.1584 77.9264-102.7072 96.9728-166.5024 19.5584-65.2288 21.7088-134.3488 6.144-199.7824v-0.1024c-14.4384-63.0784-44.8512-122.0608-87.8592-170.3936-42.5984-48.2304-97.1776-86.016-157.9008-109.2608-45.568-17.6128-92.5696-26.624-139.776-26.624-78.9504 0-155.136 23.1424-220.3648 67.072-16.1792 10.9568-31.744 23.1424-46.1824 36.352l-0.6144 0.6144c-3.6864 3.1744-5.8368 7.5776-6.0416 12.4928-0.2048 4.9152 1.6384 9.5232 5.2224 13.0048l3.1744 3.072c6.656 6.5536 17.3056 6.656 24.2688 0.3072 1.1264-1.024 2.1504-1.9456 3.072-2.6624 62.3616-55.296 141.7216-87.1424 223.6416-89.7024 71.2704-2.1504 142.7456 16.896 201.216 53.5552 58.5728 36.4544 104.8576 88.3712 133.8368 150.3232 30.208 63.7952 40.6528 135.4752 30.208 207.1552-10.3424 68.9152-40.5504 132.5056-87.2448 183.9104-45.056 51.0976-106.2912 88.6784-172.4416 105.8816-34.816 9.216-70.7584 13.4144-106.7008 12.1856-36.1472-1.1264-71.5776-7.5776-105.1648-19.1488h-0.1024c-65.4336-23.4496-124.6208-66.3552-166.6048-120.832-36.4544-48.128-59.4944-103.0144-68.7104-163.2256l-3.072-20.3776 18.1248 9.8304c6.7584 3.6864 26.5216 13.5168 57.344 28.4672 9.4208 4.608 20.5824 0.9216 25.3952-8.3968 2.4576-4.7104 2.8672-9.9328 1.1264-14.9504-1.6384-5.0176-5.2224-8.9088-9.9328-11.1616l-129.1264-61.0304c-0.9216 5.12-1.8432 11.5712-2.2528 17.92z" p-id="12068"></path><path d="M500.8384 278.4256c-17.7152 0-32.0512 14.336-32.0512 32.0512v227.9424s0 1.2288 1.2288 1.2288c0 0 0 1.2288 1.2288 1.2288 0 0 0 1.2288 1.2288 1.2288l2.56 2.56 1.2288 1.2288 2.1504 2.048 93.2864 93.2864c12.8 12.8 33.5872 12.6976 46.2848-0.3072 12.3904-12.6976 12.288-33.0752-0.3072-45.568l-84.6848-84.6848V310.4768c0-17.7152-14.4384-32.0512-32.1536-32.0512z" p-id="12069"></path><path d="M594.7392 661.1968c-11.3664 0-22.1184-4.4032-30.208-12.4928l-97.6896-97.6896c-1.1264-0.6144-2.2528-1.536-3.072-2.56l-1.2288-1.2288c-2.4576-2.048-3.9936-5.2224-3.9936-8.8064V310.4768c0-23.3472 18.944-42.2912 42.2912-42.2912s42.2912 18.944 42.2912 42.2912v195.9936l81.7152 81.7152c16.384 16.384 16.5888 43.3152 0.4096 60.0064-7.9872 8.2944-18.8416 12.8-30.3104 12.9024 0 0.1024-0.1024 0.1024-0.2048 0.1024zM481.5872 536.7808l97.4848 97.4848c4.1984 4.1984 9.8304 6.5536 15.7696 6.5536h0.2048c6.0416 0 11.5712-2.4576 15.7696-6.7584 8.3968-8.704 8.2944-22.6304-0.2048-31.232L522.752 515.072V310.4768c0-12.0832-9.8304-21.8112-21.8112-21.8112-12.0832 0-21.8112 9.8304-21.8112 21.8112v219.0336h1.2288v1.2288h1.2288v6.0416z" p-id="12070"></path></svg>