<?xml version="1.0" standalone="no"?><!DOCTYPE svg PUBLIC "-//W3C//DTD SVG 1.1//EN" "http://www.w3.org/Graphics/SVG/1.1/DTD/svg11.dtd"><svg t="1779332103073" class="icon" viewBox="0 0 1024 1024" version="1.1" xmlns="http://www.w3.org/2000/svg" p-id="15005" xmlns:xlink="http://www.w3.org/1999/xlink" width="200" height="200"><path d="M816.724423 280.574667l-1.176688 4.183779v1.176688a27.325305 27.325305 0 0 1-1.045945 3.007091v2.353375l-1.176687 2.876348v0.915202l-0.915202 2.091889v0.915202l-0.784459 1.69966v0.653715a10.851676 10.851676 0 0 1-0.915201 1.69966l-0.784459 1.568918v0.784458l-1.568917 2.745605-1.176688 1.961146-1.176687 1.830403-1.307431 2.09189-1.045945 1.568917-2.876348 3.922293-3.007091 3.922292v0.784459c-0.784459 0.784459-1.438174 1.69966-2.091889 2.484118-1.568917 1.830403-3.137834 3.660806-4.968238 5.49121-3.268577 3.530063-6.798641 6.929384-10.59019 10.328704l-5.491209 4.837494c-3.922293 3.268577-8.106071 6.406411-13.074309 9.544246a317.444218 317.444218 0 0 1 61.84148 20.395921v-95.834683zM0.103095 193.107541c9.152016 83.544833 141.464021 152.577184 317.051989 170.750473 18.565519 1.961146 37.654009 3.268577 57.134729 4.053036 11.636135 0 23.403013 0.653715 35.300634 0.653715h11.897621q41.576302 0 80.668485-4.706751a800.409185 800.409185 0 0 0 92.30462-15.035455l7.321613-1.69966a626.259392 626.259392 0 0 0 53.866152-15.427685l9.805732-3.39932c6.929384-2.484119 13.074309-5.09898 20.134436-7.844585l13.074308-5.883439c4.445265-1.961146 8.759787-4.053036 13.074309-6.144925l5.752696-2.876348q9.282759-4.706751 18.042546-9.805732c8.236815-4.968237 16.0814-10.067218 23.27227-15.427684l5.09898-3.79155a203.436245 203.436245 0 0 0 18.304033-16.0814l4.183778-4.314522a148.916377 148.916377 0 0 0 13.858768-16.996601 108.647506 108.647506 0 0 0 10.197961-18.042546c1.438174-3.137834 1.568917-3.660806 2.222632-5.49121a89.951245 89.951245 0 0 0 5.360467-22.357068v-4.053036-4.706751c0-101.848866-183.040323-184.347754-409.618095-184.347754S0.103095 82.498889 0.103095 184.347754v4.706751a39.222926 39.222926 0 0 1 0 4.053036z m457.600808 686.139726H371.936437l-15.68917-0.784458h-1.830403l-15.427685-1.045945h-1.176688L322.384807 875.97869h-2.614862l-14.904712-1.69966h-2.353375L287.737889 872.18714l-15.035455-2.222632h-1.438174l-14.643226-2.484119h-2.09189l-14.250996-2.876348h-1.307431c-9.805732-1.961146-19.48072-4.183779-28.76348-6.537154h-1.438173l-13.074309-3.530064h-1.438174c-4.445265-1.176688-9.021273-2.484119-13.074309-3.922292l-13.074309-4.314522-13.074309-4.445265C70.573619 809.822687 14.746321 766.285239 2.587214 716.733609H0.103095v122.767759c0 82.760375 120.937356 152.707927 287.634794 175.980197l13.074309 1.568917a13.074309 13.074309 0 0 0 3.137834 0l13.074308 1.568917 13.074309 1.307431h3.268577l13.074309 1.045945 13.074309 0.784458h96.880628l13.074309-0.784458 13.074309-1.045945h3.268577l13.074309-1.307431 13.074309-1.568917a13.074309 13.074309 0 0 0 3.137834 0l13.074309-1.568917A659.075907 659.075907 0 0 0 673.822228 980.57316a315.613815 315.613815 0 0 1-215.333866-101.325893zM0.103095 627.566823a21.441866 21.441866 0 0 0 0 2.876348 6.406411 6.406411 0 0 0 0 1.568917v2.876348a4.706751 4.706751 0 0 0 0 1.438174V640.641131l1.045945 4.183779 1.176687 3.79155v1.307431a26.148618 26.148618 0 0 1 1.045945 2.876348L6.640249 653.71544l1.045945 2.745605a7.060127 7.060127 0 0 1 0.653716 1.438174l1.438174 3.007091v1.045945c0 1.438174 1.438174 2.745605 2.091889 4.053035L13.177404 666.789749l1.961146 3.39932a4.706751 4.706751 0 0 1 0.915202 1.307431c0 0.915202 1.176688 1.69966 1.69966 2.745605a4.706751 4.706751 0 0 1 0.915202 1.307431l1.961146 2.745605 0.915201 1.176688 2.353376 3.137834 0.653715 0.784458 3.137835 3.922293 2.876348 3.268577a7.844585 7.844585 0 0 0 1.045944 1.045945l2.614862 2.745605 1.176688 1.176687c0.784459 0.915202 1.830403 1.830403 2.745605 2.745605l1.045944 1.045945 3.660807 3.39932 4.314522 3.660807 5.229723 4.837494 1.176688 0.915202 3.39932 2.614861 1.307431 1.045945 3.268577 3.268577h0.915202l10.197961 7.060127c1.568917 1.045945 3.137834 2.091889 4.837494 3.007091l1.045945 0.653715 4.445265 2.745605h1.176688c1.568917 1.045945 3.268577 1.961146 4.968237 2.876348h0.653715l12.159108 6.537155 5.883439 2.876348h0.915201l5.49121 2.745604h0.915201c8.759787 4.053036 17.911803 7.844585 27.456049 11.505392l6.798641 2.614862c9.805732 3.530063 20.134436 7.060127 30.724625 10.197961A699.344778 699.344778 0 0 0 287.737889 797.532837h3.791549l7.452356 1.045945h5.883439l9.413503 1.045944h6.79864l7.321613 0.653716h6.014182l10.98242 0.915202h62.233709a313.783411 313.783411 0 0 1-32.947258-140.287334v-3.922293h-3.007091l-15.68917-0.653715h-1.568917l-15.427685-0.915202h-1.176688l-15.427684-1.438174h-2.614862l-14.904712-1.69966h-2.353375L287.737889 653.71544l-15.035455-2.222632h-1.438174l-14.643226-2.484119h-2.09189l-14.250996-2.876348h-1.307431c-9.805732-2.091889-19.48072-4.183779-28.76348-6.537154h-1.438173l-13.074309-3.530064h-1.568917c-4.445265-1.307431-9.021273-2.484119-13.074309-3.922292-4.576008-1.307431-9.021273-2.745605-13.074309-4.314522-4.314522-1.438174-8.498301-2.353376-13.074309-3.922293l-14.381739-5.621953c-4.576008-1.961146-9.152016-3.79155-13.074309-5.883439h-0.784459l-13.074309-6.144925h-0.653715q-6.667897-3.137834-13.074309-6.667897c-3.922293-2.091889-7.713842-4.314522-11.505392-6.537155h-0.784458a300.709103 300.709103 0 0 1-22.357068-14.643225A150.616037 150.616037 0 0 1 5.594305 509.898043c-1.176688-3.137834-2.091889-6.406411-3.007091-9.674988H0.103095v126.16708A5.360467 5.360467 0 0 0 0.103095 627.566823z m0-218.471701a26.148618 26.148618 0 0 0 0 3.007092 5.883439 5.883439 0 0 0 0 1.438173v2.876348a5.621953 5.621953 0 0 0 1.307431 1.961147v4.183779c0 3.007091 1.438174 5.752696 2.353375 8.629043v0.784459l1.307431 3.530063a1.830403 1.830403 0 0 1 0 0.784459l1.568917 3.660806C37.757104 506.237237 146.273867 559.580417 287.737889 579.322623l13.074309 1.69966h3.137834l13.074308 1.568917 13.074309 1.307431h3.268577l13.074309 1.045945 13.074309 0.784458h3.660806l20.134436 0.915202a315.875301 315.875301 0 0 1 82.760375-144.863341H337.812491l-8.89053-0.784459-6.537154-0.653715h-2.614862l-14.904712-1.699661h-2.353375l-14.773969-2.614861-7.060127-1.045945H271.133517l-4.314522-0.784459-11.113163-2.745604h-2.091889l-14.250997-2.876348h-1.438174l-14.512483-3.137835-14.120253-4.576008h-1.438174l-13.074309-3.660806h-1.568917q-6.798641-1.69966-13.074309-3.922293l-13.074309-4.314522-13.074308-4.445265-10.067218-4.445265-2.614862-0.915201-6.014182-2.484119-2.876348-1.176688-6.144925-2.614861-2.484119-0.653716-8.106071-3.660806h-0.653716l-7.321613-3.530064-1.961146-0.915201-5.883439-3.007091-1.961146-1.961147-6.275668-3.137834h-0.784459l-7.452356-4.314522c-2.353376-1.307431-4.576008-2.745605-6.79864-4.183779L75.018884 366.080647l-5.752695-3.79155-0.915202-0.653715c-6.798641-4.576008-13.074309-9.282759-18.827005-13.989511l-5.360466-4.576008c-3.660806-3.39932-7.19087-6.798641-10.459447-10.197961s-3.530063-3.79155-5.229724-5.752696l-2.091889-2.614861v-0.784459l-3.007091-3.922293-2.876348-3.922292-3.137834-2.09189-1.307431-2.091889-1.176688-1.830403-1.69966-2.614862-1.568917-2.745605v-0.784458a9.805732 9.805732 0 0 0-0.915202-1.568918v-0.653715l-0.915201-1.830403-0.915202-1.568917-1.045945-2.353376v-1.176688l-1.176688-2.745604v-2.353376a27.325305 27.325305 0 0 1-1.045944-3.007091v-1.307431l-1.176688-4.053036H0.103095v127.082282a5.360467 5.360467 0 0 0 0 0.915201z m1019.796087 536.046661l-112.439056-112.439055a274.560485 274.560485 0 1 0-80.145513 70.339781l117.668779 117.668779a16.473629 16.473629 0 0 0 22.618555-2.745604L1018.068779 967.498852a16.473629 16.473629 0 0 0 1.830403-22.618555zM479.668742 665.482318A210.496372 210.496372 0 1 1 690.165114 875.97869a210.496372 210.496372 0 0 1-210.496372-210.496372z m424.130578 172.188647z m-70.209039 61.710738z m5.621953-3.399321z m5.49121-3.791549zM849.933167 889.052999z m5.49121-4.053036s0.261486-0.784459 0.261486-0.653715z m5.229724-4.053036z m5.229723-4.314522z m5.09898-4.314522z m4.968238-4.576008z m4.837494-4.576008z m4.837494-4.706751z m13.074309-14.904712z m-4.445265 5.09898z m-4.445265 4.837495z" p-id="15006"></path></svg>