<svg viewBox="0 0 24 24" xmlns="http://www.w3.org/2000/svg">
  <path d="M20 7h-2.5c-.28 0-.5-.22-.5-.5V4a1 1 0 0 0-1-1h-3a1 1 0 0 0-1 1v2.5c0 .28-.22.5-.5.5H9a1 1 0 0 0-1 1v3a1 1 0 0 0 1 1h2.5c.28 0 .5.22.5.5V16a1 1 0 0 0 1 1h3a1 1 0 0 0 1-1v-2.5c0-.28.22-.5.5-.5H20a1 1 0 0 0 1-1v-3a1 1 0 0 0-1-1z"/>
  <path d="M4 16h2.5c.28 0 .5.22.5.5V20a1 1 0 0 0 1 1h3a1 1 0 0 0 1-1v-2.5c0-.28.22-.5.5-.5H14a1 1 0 0 0 1-1v-1a1 1 0 0 0-1-1h-3.5c-.28 0-.5-.22-.5-.5V12a1 1 0 0 0-1-1H6a1 1 0 0 0-1 1v1.5c0 .28-.22.5-.5.5H4a1 1 0 0 0-1 1v1a1 1 0 0 0 1 1z" opacity=".5"/>
</svg>
