<?xml version="1.0" standalone="no"?><!DOCTYPE svg PUBLIC "-//W3C//DTD SVG 1.1//EN" "http://www.w3.org/Graphics/SVG/1.1/DTD/svg11.dtd"><svg t="1726298948966" class="icon" viewBox="0 0 1024 1024" version="1.1" xmlns="http://www.w3.org/2000/svg" p-id="11818" xmlns:xlink="http://www.w3.org/1999/xlink" width="200" height="200"><path d="M508.313 1018.666s-379.51-422.921-379.51-632.516c0-209.606 169.914-379.51 379.51-379.51s379.511 169.903 379.51 379.51c0 209.596-379.51 632.516-379.51 632.516z m0-963.371c-182.719 0-330.854 150.305-330.854 335.72s330.854 559.534 330.854 559.534 330.854-374.117 330.854-559.534c0-185.415-148.135-335.72-330.854-335.72z m-0.001 457.359c-87.336 0-158.129-70.793-158.129-158.129s70.793-158.129 158.129-158.129 158.129 70.793 158.129 158.129c0 87.328-70.793 158.129-158.129 158.129z m0.001-272.469c-64.488 0-116.772 52.285-116.772 116.772s52.285 116.772 116.772 116.772c64.498 0 116.772-52.285 116.772-116.772 0-64.488-52.275-116.772-116.772-116.772z" p-id="11819"></path></svg>